<?xml version="1.0" encoding="UTF-8" standalone="no"?>
<!DOCTYPE svg PUBLIC "-//W3C//DTD SVG 1.1//EN" "http://www.w3.org/Graphics/SVG/1.1/DTD/svg11.dtd">
<svg width="100%" height="100%" viewBox="0 0 24 24" version="1.1" xmlns="http://www.w3.org/2000/svg" xmlns:xlink="http://www.w3.org/1999/xlink" xml:space="preserve" xmlns:serif="http://www.serif.com/" style="fill-rule:evenodd;clip-rule:evenodd;stroke-linejoin:round;stroke-miterlimit:2;">
    <g transform="matrix(1.33333,0,0,1.33333,-4,-4)">
        <path d="M11,11L4,11C3.448,11 3,11.448 3,12C3,12.552 3.448,13 4,13L11,13L11,20C11,20.552 11.448,21 12,21C12.552,21 13,20.552 13,20L13,13L20,13C20.552,13 21,12.552 21,12C21,11.448 20.552,11 20,11L13,11L13,4C13,3.448 12.552,3 12,3C11.448,3 11,3.448 11,4L11,11Z" style="fill:white; fill-opacity:0.95;"/>
    </g>
</svg>
