<?xml version="1.0" encoding="UTF-8" standalone="no"?>
<!DOCTYPE svg PUBLIC "-//W3C//DTD SVG 1.1//EN" "http://www.w3.org/Graphics/SVG/1.1/DTD/svg11.dtd">
<svg width="100%" height="100%" viewBox="0 0 800 800" version="1.1" xmlns="http://www.w3.org/2000/svg" xmlns:xlink="http://www.w3.org/1999/xlink" xml:space="preserve" xmlns:serif="http://www.serif.com/" style="fill-rule:evenodd;clip-rule:evenodd;stroke-linejoin:round;stroke-miterlimit:2;">
    <g transform="matrix(1.2,0,0,1.2,-80,-80)">
        <path d="M533.333,200L533.333,166.667C533.333,111.438 488.563,66.667 433.333,66.667C433.333,66.667 366.667,66.667 366.667,66.667C311.438,66.667 266.667,111.438 266.667,166.667L266.667,200L133.333,200C114.936,200 100,214.936 100,233.333C100,251.731 114.936,266.667 133.333,266.667L166.667,266.667L166.667,600C166.667,673.64 226.362,733.333 300,733.333L500,733.333C573.64,733.333 633.333,673.64 633.333,600L633.333,266.667L666.667,266.667C685.064,266.667 700,251.731 700,233.333C700,214.936 685.064,200 666.667,200L533.333,200ZM566.667,266.667L566.667,600C566.667,636.82 536.82,666.667 500,666.667C500,666.667 300,666.667 300,666.667C263.181,666.667 233.333,636.82 233.333,600L233.333,266.667L566.667,266.667ZM300,366.667L300,566.667C300,585.064 314.936,600 333.333,600C351.731,600 366.667,585.064 366.667,566.667L366.667,366.667C366.667,348.269 351.731,333.333 333.333,333.333C314.936,333.333 300,348.269 300,366.667ZM433.333,366.667L433.333,566.667C433.333,585.064 448.269,600 466.667,600C485.064,600 500,585.064 500,566.667L500,366.667C500,348.269 485.064,333.333 466.667,333.333C448.269,333.333 433.333,348.269 433.333,366.667ZM466.667,200L333.333,200C333.333,200 333.333,166.667 333.333,166.667C333.333,148.257 348.257,133.333 366.667,133.333L433.333,133.333C451.743,133.333 466.667,148.257 466.667,166.667L466.667,200Z"/>
    </g>
</svg>
