<?xml version="1.0" encoding="UTF-8" standalone="no"?>
<!DOCTYPE svg PUBLIC "-//W3C//DTD SVG 1.1//EN" "http://www.w3.org/Graphics/SVG/1.1/DTD/svg11.dtd">
<svg width="100%" height="100%" viewBox="0 0 800 800" version="1.1" xmlns="http://www.w3.org/2000/svg" xmlns:xlink="http://www.w3.org/1999/xlink" xml:space="preserve" xmlns:serif="http://www.serif.com/" style="fill-rule:evenodd;clip-rule:evenodd;stroke-linejoin:round;stroke-miterlimit:2;">
    <g transform="matrix(1.2,0,0,1.2,-80,-80)">
        <path d="M580,388.859L600,388.859C624.277,388.859 636.516,387.432 646.092,391.396C654.257,394.78 660.746,401.268 664.13,409.433C668.094,419.01 666.667,542.39 666.667,566.667C666.667,590.943 668.094,603.182 664.13,612.759C660.746,620.924 654.257,627.413 646.093,630.797C636.516,634.76 624.277,633.333 600,633.333L200,633.333C175.724,633.333 163.484,634.761 153.909,630.797C145.742,627.413 139.254,620.923 135.871,612.758C131.905,603.181 133.333,590.943 133.333,566.667C133.333,542.39 131.905,419.011 135.871,409.435C139.254,401.269 145.742,394.779 153.909,391.396C163.484,387.431 175.724,388.859 200,388.859L220,388.859C238.397,388.859 253.333,373.923 253.333,355.526C253.333,337.128 238.397,322.192 220,322.192L200,322.192C162.133,322.192 143.337,323.617 128.401,329.802C128.4,329.802 128.399,329.803 128.397,329.803C103.896,339.953 84.428,359.422 74.279,383.922C74.279,383.923 74.278,383.924 74.278,383.925C68.092,398.862 66.667,528.798 66.667,566.667C66.667,604.535 68.092,623.33 74.278,638.268C74.278,638.269 74.279,638.27 74.279,638.271C84.428,662.77 103.896,682.239 128.397,692.389C128.399,692.39 128.4,692.39 128.401,692.391C143.337,698.575 162.133,700 200,700L600,700C637.867,700 656.661,698.576 671.598,692.391C671.6,692.39 671.602,692.389 671.605,692.389C696.103,682.239 715.572,662.77 725.722,638.271C725.723,638.269 725.724,638.267 725.725,638.265C731.909,623.328 733.333,604.533 733.333,566.667C733.333,528.8 731.909,398.865 725.725,383.928C725.724,383.925 725.723,383.923 725.722,383.921C715.572,359.422 696.103,339.953 671.605,329.804C671.602,329.803 671.6,329.802 671.598,329.801C656.661,323.617 637.867,322.192 600,322.192L580,322.192C561.603,322.192 546.667,337.128 546.667,355.526C546.667,373.923 561.603,388.859 580,388.859ZM566.822,533.333C585.3,533.333 600.303,548.335 600.303,566.814C600.303,585.292 585.3,600.295 566.822,600.295C548.343,600.295 533.341,585.292 533.341,566.814C533.341,548.335 548.343,533.333 566.822,533.333ZM366.667,390.983L323.57,347.887C310.561,334.878 289.439,334.878 276.43,347.887C263.421,360.896 263.421,382.018 276.43,395.027L376.45,495.047C378.358,496.952 380.44,498.578 382.649,499.915L383.06,500.172L384.496,500.973L385.235,501.338L385.554,501.501L385.962,501.697L386.569,501.96L387.03,502.169L387.454,502.345L387.928,502.523L388.544,502.766L388.97,502.916L389.312,503.026L390.092,503.291L391.674,503.74L392.146,503.849C394.662,504.467 397.294,504.79 400,504.79C402.706,504.79 405.338,504.467 407.854,503.849L408.326,503.74L409.908,503.291L410.688,503.026L411.03,502.916L411.456,502.766L412.072,502.523L412.546,502.345L412.97,502.169L413.431,501.96L414.038,501.697L414.446,501.501L414.765,501.338L415.504,500.973L416.94,500.172L418.343,499.296L419.711,498.343L421.04,497.314L422.327,496.209L423.57,495.027L523.57,395.027C536.579,382.018 536.579,360.896 523.57,347.887C510.561,334.878 489.439,334.878 476.43,347.887L433.333,390.983L433.333,104.79C433.333,86.393 418.397,71.457 400,71.457C381.603,71.457 366.667,86.393 366.667,104.79L366.667,390.983Z"/>
    </g>
</svg>
