<?xml version="1.0" encoding="UTF-8" standalone="no"?>
<!DOCTYPE svg PUBLIC "-//W3C//DTD SVG 1.1//EN" "http://www.w3.org/Graphics/SVG/1.1/DTD/svg11.dtd">
<svg width="100%" height="100%" viewBox="0 0 800 800" version="1.1" xmlns="http://www.w3.org/2000/svg" xmlns:xlink="http://www.w3.org/1999/xlink" xml:space="preserve" xmlns:serif="http://www.serif.com/" style="fill-rule:evenodd;clip-rule:evenodd;stroke-linejoin:round;stroke-miterlimit:2;">
    <g transform="matrix(0.942678,0,0,0.942678,45.8574,45.8574)">
        <g transform="matrix(2.2792,0,0,2.2792,-565.242,-464.957)">
            <path d="M314.702,439.438L287.828,466.313C290.914,466.928 294.102,467.25 297.359,467.25L302.844,467.25C311.87,467.25 319.297,459.823 319.297,450.797C319.297,446.41 317.543,442.401 314.702,439.438ZM248.937,427.422L280.906,395.453L280.906,253.359C280.906,244.333 288.333,236.906 297.359,236.906L439.453,236.906L471.422,204.937C468.336,204.322 465.148,204 461.891,204L297.359,204C270.282,204 248,226.282 248,253.359L248,417.891C248,421.148 248.322,424.336 248.937,427.422ZM510.313,243.828L483.438,270.702C486.401,273.543 490.41,275.297 494.797,275.297C503.823,275.297 511.25,267.87 511.25,258.844L511.25,253.359C511.25,250.102 510.928,246.914 510.313,243.828Z" style="fill-rule:nonzero;"/>
        </g>
        <path d="M312.5,200C250.784,200 200,250.784 200,312.5L200,687.5C200,749.216 250.784,800 312.5,800L687.5,800C749.216,800 800,749.216 800,687.5L800,312.5C800,250.784 749.216,200 687.5,200L312.5,200ZM275,312.5C275,291.928 291.928,275 312.5,275L687.5,275C708.072,275 725,291.928 725,312.5L725,687.5C725,708.072 708.072,725 687.5,725L312.5,725C291.928,725 275,708.072 275,687.5L275,312.5Z"/>
        <g transform="matrix(2.2792,0,0,2.2792,-565.242,-464.957)">
            <path d="M325.25,366.665L231.486,460.429C225.047,466.869 225.047,477.325 231.486,483.764C237.925,490.203 248.381,490.203 254.821,483.764L325.25,413.335L325.25,366.665Z"/>
        </g>
        <g transform="matrix(2.2792,0,0,2.2792,-565.242,-464.957)">
            <path d="M410.665,281.25L457.335,281.25L527.764,210.821C534.203,204.381 534.203,193.925 527.764,187.486C521.325,181.047 510.869,181.047 504.429,187.486L410.665,281.25Z"/>
        </g>
    </g>
</svg>
