<?xml version="1.0" encoding="UTF-8" standalone="no"?>
<!DOCTYPE svg PUBLIC "-//W3C//DTD SVG 1.1//EN" "http://www.w3.org/Graphics/SVG/1.1/DTD/svg11.dtd">
<svg width="100%" height="100%" viewBox="0 0 24 24" version="1.1" xmlns="http://www.w3.org/2000/svg" xmlns:xlink="http://www.w3.org/1999/xlink" xml:space="preserve" xmlns:serif="http://www.serif.com/" style="fill-rule:evenodd;clip-rule:evenodd;stroke-linejoin:round;stroke-miterlimit:2;">
    <g transform="matrix(1.22316,0,0,1.22316,-2.67791,-2.60372)">
        <path d="M3,21.75L21,21.75C21.414,21.75 21.75,21.414 21.75,21C21.75,20.586 21.414,20.25 21,20.25L3,20.25C2.586,20.25 2.25,20.586 2.25,21C2.25,21.414 2.586,21.75 3,21.75ZM3.97,12.97C3.874,13.066 3.805,13.186 3.772,13.318L2.772,17.318C2.708,17.574 2.783,17.844 2.97,18.03C3.156,18.217 3.426,18.292 3.682,18.228L7.682,17.228C7.814,17.195 7.934,17.126 8.03,17.03L18.03,7.03C19.152,5.909 19.152,4.091 18.03,2.97C16.909,1.848 15.091,1.848 13.97,2.97C13.97,2.97 3.97,12.97 3.97,12.97ZM5.177,13.883L15.03,4.03C15.566,3.495 16.434,3.495 16.97,4.03C17.505,4.566 17.505,5.434 16.97,5.97C16.97,5.97 7.117,15.823 7.117,15.823C7.117,15.823 4.531,16.469 4.531,16.469L5.177,13.883Z" style="fill-opacity:0.95;"/>
    </g>
</svg>
