<?xml version="1.0" encoding="UTF-8" standalone="no"?>
<!DOCTYPE svg PUBLIC "-//W3C//DTD SVG 1.1//EN" "http://www.w3.org/Graphics/SVG/1.1/DTD/svg11.dtd">
<svg width="100%" height="100%" viewBox="0 0 24 24" version="1.1" xmlns="http://www.w3.org/2000/svg" xmlns:xlink="http://www.w3.org/1999/xlink" xml:space="preserve" xmlns:serif="http://www.serif.com/" style="fill-rule:evenodd;clip-rule:evenodd;stroke-linejoin:round;stroke-miterlimit:2;">
    <g transform="matrix(1.11628,0,0,1.11629,-1.39535,-1.39553)">
        <path d="M5.57,6.63C2.823,8.786 1.334,11.654 1.334,11.654C1.222,11.871 1.222,12.129 1.334,12.346C1.334,12.346 2.707,14.995 5.251,17.112C6.988,18.558 9.262,19.75 12,19.75C13.977,19.75 15.712,19.129 17.178,18.239L21.47,22.53C21.762,22.823 22.238,22.823 22.53,22.53C22.823,22.238 22.823,21.762 22.53,21.47L2.53,1.47C2.238,1.177 1.762,1.177 1.47,1.47C1.177,1.762 1.177,2.238 1.47,2.53L5.57,6.63ZM6.639,7.699C4.624,9.229 3.329,11.21 2.862,12C3.296,12.731 4.441,14.486 6.211,15.96C7.703,17.202 9.647,18.25 12,18.25C13.54,18.25 14.905,17.8 16.082,17.142L14.068,15.129C13.475,15.521 12.764,15.75 12,15.75C9.929,15.75 8.25,14.071 8.25,12C8.25,11.236 8.479,10.525 8.871,9.932L6.639,7.699ZM11.087,5.803C11.384,5.768 11.689,5.75 12,5.75C14.353,5.75 16.297,6.798 17.789,8.04C19.558,9.513 20.704,11.268 21.138,11.999C20.858,12.471 20.282,13.368 19.434,14.341C19.163,14.653 19.195,15.127 19.507,15.399C19.819,15.671 20.294,15.638 20.566,15.326C21.941,13.747 22.666,12.346 22.666,12.346C22.778,12.129 22.778,11.871 22.666,11.654C22.666,11.654 21.293,9.005 18.749,6.888C17.012,5.442 14.738,4.25 12,4.25C11.629,4.25 11.267,4.272 10.913,4.313C10.502,4.361 10.207,4.734 10.255,5.145C10.303,5.557 10.676,5.851 11.087,5.803ZM9.969,11.03C9.829,11.324 9.75,11.653 9.75,12C9.75,13.243 10.757,14.25 12,14.25C12.347,14.25 12.676,14.171 12.97,14.031L9.969,11.03Z" style="fill-opacity:0.95;"/>
    </g>
</svg>
