<?xml version="1.0" encoding="UTF-8" standalone="no"?>
<!DOCTYPE svg PUBLIC "-//W3C//DTD SVG 1.1//EN" "http://www.w3.org/Graphics/SVG/1.1/DTD/svg11.dtd">
<svg width="100%" height="100%" viewBox="0 0 1024 1024" version="1.1" xmlns="http://www.w3.org/2000/svg" xmlns:xlink="http://www.w3.org/1999/xlink" xml:space="preserve" xmlns:serif="http://www.serif.com/" style="fill-rule:evenodd;clip-rule:evenodd;stroke-linejoin:round;stroke-miterlimit:2;">
    <g transform="matrix(43.5744,0,0,43.5744,-10.8924,-10.8924)">
        <path d="M0.25,11.992L0.25,12.008C0.251,12.118 0.277,12.23 0.329,12.335C0.329,12.335 1.831,15.345 4.613,17.751C6.514,19.395 9.003,20.75 12,20.75C14.997,20.75 17.486,19.395 19.387,17.751C22.169,15.345 23.671,12.335 23.671,12.335C23.723,12.23 23.749,12.118 23.75,12.008L23.75,11.992C23.749,11.882 23.723,11.77 23.671,11.665C23.671,11.665 22.169,8.655 19.387,6.249C17.486,4.605 14.997,3.25 12,3.25C9.003,3.25 6.514,4.605 4.613,6.249C1.831,8.655 0.329,11.665 0.329,11.665C0.277,11.77 0.251,11.882 0.25,11.992ZM22.148,12C21.697,11.201 20.415,9.121 18.405,7.383C16.754,5.955 14.603,4.75 12,4.75C9.397,4.75 7.246,5.955 5.595,7.383C3.585,9.121 2.303,11.201 1.852,12C2.303,12.799 3.585,14.879 5.595,16.617C7.246,18.045 9.397,19.25 12,19.25C14.603,19.25 16.754,18.045 18.405,16.617C20.415,14.879 21.697,12.799 22.148,12ZM12,15.75C14.071,15.75 15.75,14.071 15.75,12C15.75,9.929 14.071,8.25 12,8.25C9.929,8.25 8.25,9.929 8.25,12C8.25,14.071 9.929,15.75 12,15.75ZM12,14.25C10.757,14.25 9.75,13.243 9.75,12C9.75,10.757 10.757,9.75 12,9.75C13.243,9.75 14.25,10.757 14.25,12C14.25,13.243 13.243,14.25 12,14.25Z" style="fill-opacity:0.95;"/>
    </g>
</svg>
