<?xml version="1.0" encoding="UTF-8" standalone="no"?>
<!DOCTYPE svg PUBLIC "-//W3C//DTD SVG 1.1//EN" "http://www.w3.org/Graphics/SVG/1.1/DTD/svg11.dtd">
<svg width="100%" height="100%" viewBox="0 0 800 800" version="1.1" xmlns="http://www.w3.org/2000/svg" xmlns:xlink="http://www.w3.org/1999/xlink" xml:space="preserve" xmlns:serif="http://www.serif.com/" style="fill-rule:evenodd;clip-rule:evenodd;stroke-linejoin:round;stroke-miterlimit:2;">
    <g transform="matrix(1.17073,0,0,1.17073,-68.2927,-68.2888)">
        <path d="M400,58.33C211.429,58.33 58.333,211.426 58.333,399.997C58.333,588.568 211.429,741.663 400,741.663C588.571,741.663 741.667,588.568 741.667,399.997C741.667,211.426 588.571,58.33 400,58.33ZM400,141.663C542.578,141.663 658.333,257.419 658.333,399.997C658.333,542.575 542.578,658.33 400,658.33C257.422,658.33 141.667,542.575 141.667,399.997C141.667,257.419 257.422,141.663 400,141.663ZM358.333,400L358.333,533.333C358.333,556.33 377.004,575 400,575C422.996,575 441.667,556.33 441.667,533.333L441.667,400C441.667,377.004 422.996,358.333 400,358.333C377.004,358.333 358.333,377.004 358.333,400ZM400,219.557C422.996,219.557 441.667,238.22 441.667,261.207C441.667,284.195 422.996,302.857 400,302.857C377.004,302.857 358.333,284.195 358.333,261.207C358.333,238.22 377.004,219.557 400,219.557Z"/>
    </g>
</svg>
