<?xml version="1.0" encoding="UTF-8" standalone="no"?>
<!DOCTYPE svg PUBLIC "-//W3C//DTD SVG 1.1//EN" "http://www.w3.org/Graphics/SVG/1.1/DTD/svg11.dtd">
<svg width="100%" height="100%" viewBox="0 0 800 800" version="1.1" xmlns="http://www.w3.org/2000/svg" xmlns:xlink="http://www.w3.org/1999/xlink" xml:space="preserve" xmlns:serif="http://www.serif.com/" style="fill-rule:evenodd;clip-rule:evenodd;stroke-linejoin:round;stroke-miterlimit:2;">
    <g transform="matrix(1.04348,0,0,1.04348,-17.3913,-17.3913)">
        <path d="M266.667,250C183.824,250 116.667,317.157 116.667,400C116.667,482.843 183.824,550 266.667,550L316.667,550C335.077,550 350,564.923 350,583.333L350,616.667C350,635.077 335.077,650 316.667,650L266.667,650C128.595,650 16.667,538.07 16.667,400C16.667,261.929 128.595,150 266.667,150L316.667,150C335.077,150 350,164.924 350,183.333L350,216.667C350,235.076 335.077,250 316.667,250L266.667,250ZM683.333,400C683.333,317.157 616.177,250 533.333,250L483.333,250C464.923,250 450,235.076 450,216.667L450,183.333C450,164.924 464.923,150 483.333,150L533.333,150C671.403,150 783.333,261.929 783.333,400C783.333,538.07 671.403,650 533.333,650L483.333,650C464.923,650 450,635.077 450,616.667L450,583.333C450,564.923 464.923,550 483.333,550L533.333,550C616.177,550 683.333,482.843 683.333,400ZM216.667,383.333C216.667,364.923 231.59,350 250,350L550,350C568.41,350 583.333,364.923 583.333,383.333L583.333,416.667C583.333,435.077 568.41,450 550,450L250,450C231.591,450 216.667,435.077 216.667,416.667L216.667,383.333Z" style="fill-rule:nonzero;"/>
    </g>
</svg>
