<?xml version="1.0" encoding="UTF-8" standalone="no"?>
<!DOCTYPE svg PUBLIC "-//W3C//DTD SVG 1.1//EN" "http://www.w3.org/Graphics/SVG/1.1/DTD/svg11.dtd">
<svg width="100%" height="100%" viewBox="0 0 800 800" version="1.1" xmlns="http://www.w3.org/2000/svg" xmlns:xlink="http://www.w3.org/1999/xlink" xml:space="preserve" xmlns:serif="http://www.serif.com/" style="fill-rule:evenodd;clip-rule:evenodd;stroke-linejoin:round;stroke-miterlimit:2;">
    <g transform="matrix(1.2,0,0,1.2,-80,-80)">
        <path d="M66.667,616.667C66.667,635.076 81.591,650 100,650L133.333,650C151.743,650 166.667,635.076 166.667,616.667L166.667,583.333C166.667,564.924 151.743,550 133.333,550L100,550C81.591,550 66.667,564.924 66.667,583.333L66.667,616.667ZM266.665,633.333L699.998,633.357C718.395,633.358 733.332,618.422 733.333,600.025C733.334,581.628 718.399,566.691 700.002,566.69L266.668,566.667C248.271,566.666 233.334,581.601 233.333,599.998C233.332,618.395 248.268,633.332 266.665,633.333ZM66.667,416.667C66.667,435.076 81.591,450 100,450L133.333,450C151.743,450 166.667,435.076 166.667,416.667L166.667,383.333C166.667,364.924 151.743,350 133.333,350L100,350C81.591,350 66.667,364.924 66.667,383.333L66.667,416.667ZM266.665,433.333L699.998,433.36C718.395,433.361 733.332,418.426 733.333,400.029C733.334,381.632 718.399,366.694 700.002,366.693L266.669,366.667C248.272,366.666 233.334,381.601 233.333,399.998C233.332,418.395 248.267,433.332 266.665,433.333ZM66.667,216.667C66.667,235.076 81.591,250 100,250L133.333,250C151.743,250 166.667,235.076 166.667,216.667L166.667,183.333C166.667,164.924 151.743,150 133.333,150L100,150C81.591,150 66.667,164.924 66.667,183.333L66.667,216.667ZM266.665,233.333L699.998,233.359C718.395,233.36 733.332,218.425 733.333,200.028C733.334,181.631 718.399,166.694 700.002,166.693L266.669,166.667C248.271,166.666 233.334,181.601 233.333,199.998C233.332,218.395 248.267,233.332 266.665,233.333Z"/>
    </g>
</svg>
