<?xml version="1.0" encoding="UTF-8" standalone="no"?>
<!DOCTYPE svg PUBLIC "-//W3C//DTD SVG 1.1//EN" "http://www.w3.org/Graphics/SVG/1.1/DTD/svg11.dtd">
<svg width="100%" height="100%" viewBox="0 0 800 800" version="1.1" xmlns="http://www.w3.org/2000/svg" xmlns:xlink="http://www.w3.org/1999/xlink" xml:space="preserve" xmlns:serif="http://www.serif.com/" style="fill-rule:evenodd;clip-rule:evenodd;stroke-linejoin:round;stroke-miterlimit:2;">
    <g transform="matrix(1.2,0,0,1.2,-80,-80)">
        <path d="M666.667,133.333L700,133.333C718.397,133.333 733.333,118.397 733.333,100C733.333,81.603 718.397,66.667 700,66.667L100,66.667C81.603,66.667 66.667,81.603 66.667,100C66.667,118.397 81.603,133.333 100,133.333L133.333,133.333L133.333,593.333C133.333,638.837 135.377,661.354 144.233,678.734C153.82,697.549 169.119,712.848 187.935,722.434C205.315,731.289 227.831,733.333 273.333,733.333L530.02,733.333C535.164,733.333 537.692,732.873 540.117,732.298L540.191,732.281C544.153,731.323 547.866,729.78 551.271,727.696C553.425,726.378 555.576,724.898 559.247,721.227C559.247,721.227 654.56,625.914 654.56,625.914C658.231,622.243 659.711,620.092 661.029,617.938C663.113,614.533 664.656,610.82 665.596,606.932L665.614,606.858C666.206,604.359 666.667,601.831 666.667,596.687L666.667,133.333ZM600,500L600,133.333L200,133.333L200,133.333C200,133.333 200,593.333 200,593.333C200,622.536 197.949,637.313 203.633,648.466L203.633,648.467C206.828,654.737 211.926,659.837 218.199,663.033L218.201,663.034C229.355,668.717 244.13,666.667 273.333,666.667L433.333,666.667L433.333,538.333C433.333,517.173 450.507,500 471.667,500L600,500ZM500,566.667L600,566.667L600,586.193L519.526,666.667L500,666.667L500,566.667ZM374.827,211.492C374.168,212.067 373.524,212.668 372.897,213.295L276.43,309.763C263.421,322.772 263.421,343.895 276.43,356.904C289.439,369.912 310.562,369.912 323.57,356.903L366.667,313.807L366.667,433.333C366.667,451.731 381.603,466.667 400,466.667C418.397,466.667 433.333,451.731 433.333,433.333L433.333,313.807L476.43,356.903C489.438,369.912 510.561,369.912 523.57,356.904C536.579,343.895 536.579,322.772 523.57,309.763L427.105,213.297C426.478,212.67 425.834,212.069 425.174,211.493C419.061,204.454 410.047,200 400,200C389.955,200 380.942,204.453 374.827,211.492Z"/>
    </g>
</svg>
