<?xml version="1.0" encoding="UTF-8" standalone="no"?>
<!DOCTYPE svg PUBLIC "-//W3C//DTD SVG 1.1//EN" "http://www.w3.org/Graphics/SVG/1.1/DTD/svg11.dtd">
<svg  viewBox="0 0 24 24" version="1.1" xmlns="http://www.w3.org/2000/svg" xmlns:xlink="http://www.w3.org/1999/xlink" xml:space="preserve" xmlns:serif="http://www.serif.com/" style="fill-rule:evenodd;clip-rule:evenodd;stroke-linejoin:round;stroke-miterlimit:2;">
    <g transform="matrix(1.5,0,0,1.5,-6,-6)">
        <path d="M5,18L19,18C19.552,18 20,17.552 20,17C20,16.448 19.552,16 19,16L5,16C4.448,16 4,16.448 4,17C4,17.552 4.448,18 5,18ZM5,13L19,13C19.552,13 20,12.552 20,12C20,11.448 19.552,11 19,11L5,11C4.448,11 4,11.448 4,12C4,12.552 4.448,13 5,13ZM5,8L19,8C19.552,8 20,7.552 20,7C20,6.448 19.552,6 19,6L5,6C4.448,6 4,6.448 4,7C4,7.552 4.448,8 5,8Z" style="fill-opacity:0.95;"/>
    </g>
</svg>
