<?xml version="1.0" encoding="UTF-8" standalone="no"?>
<!DOCTYPE svg PUBLIC "-//W3C//DTD SVG 1.1//EN" "http://www.w3.org/Graphics/SVG/1.1/DTD/svg11.dtd">
<svg width="100%" height="100%" viewBox="0 0 800 800" version="1.1" xmlns="http://www.w3.org/2000/svg" xmlns:xlink="http://www.w3.org/1999/xlink" xml:space="preserve" xmlns:serif="http://www.serif.com/" style="fill-rule:evenodd;clip-rule:evenodd;stroke-linejoin:round;stroke-miterlimit:2;">
    <g transform="matrix(1.05765,0,0,1.05765,-35.2549,-23.059)">
        <path d="M666.667,733.333C685.064,733.333 693.362,728.791 705.525,684.21L787.342,384.207C797.983,345.193 771.811,306.692 733.333,300.783L733.333,233.333C733.333,196.515 703.487,166.667 666.667,166.667C666.667,166.667 355.54,166.667 355.54,166.667C355.54,166.667 355.54,166.667 355.54,166.667C355.54,166.667 314.96,99.033 314.96,99.033C302.912,78.953 281.211,66.667 257.794,66.667C257.794,66.667 100,66.667 100,66.667C63.181,66.667 33.333,96.515 33.333,133.333L33.333,666.667C33.333,703.487 63.181,733.333 100,733.333L666.667,733.333ZM723.024,366.667L641.209,666.664C641.208,666.665 641.208,666.667 641.207,666.667L110.309,666.667L192.126,366.667C192.127,366.667 192.127,366.667 192.127,366.667L723.024,366.667ZM666.667,300L666.667,233.333L355.54,233.333C332.12,233.333 310.422,221.046 298.374,200.967L257.794,133.333L100,133.333L100,451.092L127.809,349.126L127.809,349.126C135.719,320.12 162.063,300 192.127,300L666.667,300Z"/>
    </g>
</svg>
