<?xml version="1.0" encoding="UTF-8" standalone="no"?>
<!DOCTYPE svg PUBLIC "-//W3C//DTD SVG 1.1//EN" "http://www.w3.org/Graphics/SVG/1.1/DTD/svg11.dtd">
<svg width="100%" height="100%" viewBox="0 0 800 800" version="1.1" xmlns="http://www.w3.org/2000/svg" xmlns:xlink="http://www.w3.org/1999/xlink" xml:space="preserve" xmlns:serif="http://www.serif.com/" style="fill-rule:evenodd;clip-rule:evenodd;stroke-linejoin:round;stroke-miterlimit:2;">
    <g transform="matrix(1.19998,0,0,1.19998,-79.9988,-79.9988)">
        <path d="M733.333,454.923L733.333,299.2C733.333,257.429 731.14,221.587 724.483,191.638C717.743,161.311 705.993,135.022 685.487,114.514C664.98,94.007 638.69,82.257 608.36,75.517C578.413,68.861 542.57,66.667 500.8,66.667L299.2,66.667C257.429,66.667 221.587,68.861 191.638,75.517C161.311,82.257 135.022,94.007 114.514,114.514C94.007,135.022 82.257,161.311 75.517,191.638C68.861,221.587 66.667,257.429 66.667,299.2L66.667,500.8C66.667,542.57 68.861,578.413 75.517,608.36C82.257,638.69 94.007,664.98 114.514,685.487C135.022,705.993 161.311,717.743 191.638,724.483C221.587,731.14 257.429,733.333 299.2,733.333L500.8,733.333C542.57,733.333 578.413,731.14 608.36,724.483C638.69,717.743 664.98,705.993 685.487,685.487C705.993,664.98 717.743,638.69 724.483,608.36C731.14,578.413 733.333,542.57 733.333,500.8L733.333,456.473C733.347,455.957 733.347,455.44 733.333,454.923ZM140.596,206.102C135.533,228.882 133.333,258.95 133.333,299.2L133.333,369.867C157.329,346.793 179.667,327.916 201.298,314.151C227.509,297.472 254.407,287.191 283.408,287.191C312.41,287.191 339.307,297.472 365.52,314.151C391.403,330.622 418.297,354.413 447.833,383.95L502.01,438.127C534.787,411.107 566.927,392.45 601.52,388.14C624.307,385.3 645.797,388.91 666.667,397.327L666.667,299.2C666.667,258.95 664.467,228.882 659.403,206.102C654.427,183.7 647.133,170.442 638.347,161.655C629.557,152.867 616.3,145.575 593.897,140.596C571.12,135.533 541.05,133.333 500.8,133.333L299.2,133.333C258.95,133.333 228.882,135.533 206.102,140.596C183.7,145.575 170.442,152.867 161.655,161.655C152.867,170.442 145.575,183.7 140.596,206.102ZM466.667,266.667C466.667,229.848 496.513,200 533.333,200C570.153,200 600,229.848 600,266.667C600,303.486 570.153,333.333 533.333,333.333C496.513,333.333 466.667,303.486 466.667,266.667Z"/>
    </g>
</svg>
