<?xml version="1.0" encoding="UTF-8" standalone="no"?>
<!DOCTYPE svg PUBLIC "-//W3C//DTD SVG 1.1//EN" "http://www.w3.org/Graphics/SVG/1.1/DTD/svg11.dtd">
<svg width="100%" height="100%" viewBox="0 0 800 800" version="1.1" xmlns="http://www.w3.org/2000/svg" xmlns:xlink="http://www.w3.org/1999/xlink" xml:space="preserve" xmlns:serif="http://www.serif.com/" style="fill-rule:evenodd;clip-rule:evenodd;stroke-linejoin:round;stroke-miterlimit:2;">
    <g transform="matrix(1.2,0,0,1.2,-80,-80)">
        <path d="M66.667,566.667L66.667,633.333C66.667,688.192 111.808,733.333 166.667,733.333L233.333,733.333C251.731,733.333 266.667,718.397 266.667,700C266.667,681.603 251.731,666.667 233.333,666.667L166.667,666.667C148.381,666.667 133.333,651.619 133.333,633.333L133.333,566.667C133.333,548.269 118.397,533.333 100,533.333C81.603,533.333 66.667,548.269 66.667,566.667ZM566.667,733.333L633.333,733.333C688.192,733.333 733.333,688.192 733.333,633.333L733.333,566.667C733.333,548.269 718.397,533.333 700,533.333C681.603,533.333 666.667,548.269 666.667,566.667L666.667,633.333C666.667,651.619 651.619,666.667 633.333,666.667C633.333,666.667 566.667,666.667 566.667,666.667C548.269,666.667 533.333,681.603 533.333,700C533.333,718.397 548.269,733.333 566.667,733.333ZM300.558,388.783C240.013,417.923 200,472.654 200,533.333C200,551.731 214.936,566.667 233.333,566.667C251.731,566.667 266.667,551.731 266.667,533.333C266.667,475.809 328.134,433.333 400,433.333C471.866,433.333 533.333,475.809 533.333,533.333C533.333,551.731 548.269,566.667 566.667,566.667C585.064,566.667 600,551.731 600,533.333C600,472.654 559.987,417.923 499.442,388.783C520.515,365.202 533.333,334.086 533.333,300C533.333,226.411 473.589,166.667 400,166.667C326.411,166.667 266.667,226.411 266.667,300C266.667,334.086 279.485,365.202 300.558,388.783ZM400,233.333C436.794,233.333 466.667,263.206 466.667,300C466.667,336.794 436.794,366.667 400,366.667C363.206,366.667 333.333,336.794 333.333,300C333.333,263.206 363.206,233.333 400,233.333ZM233.333,66.667L166.667,66.667C111.808,66.667 66.667,111.808 66.667,166.667C66.667,166.667 66.667,233.333 66.667,233.333C66.667,251.731 81.603,266.667 100,266.667C118.397,266.667 133.333,251.731 133.333,233.333L133.333,166.667C133.333,148.381 148.381,133.333 166.667,133.333L233.333,133.333C251.731,133.333 266.667,118.397 266.667,100C266.667,81.603 251.731,66.667 233.333,66.667ZM733.333,233.333L733.333,166.667C733.333,111.808 688.192,66.667 633.333,66.667C633.333,66.667 566.667,66.667 566.667,66.667C548.269,66.667 533.333,81.603 533.333,100C533.333,118.397 548.269,133.333 566.667,133.333L633.333,133.333C651.619,133.333 666.667,148.381 666.667,166.667C666.667,166.667 666.667,233.333 666.667,233.333C666.667,251.731 681.603,266.667 700,266.667C718.397,266.667 733.333,251.731 733.333,233.333Z"/>
    </g>
</svg>
