<?xml version="1.0" encoding="UTF-8" standalone="no"?>
<!DOCTYPE svg PUBLIC "-//W3C//DTD SVG 1.1//EN" "http://www.w3.org/Graphics/SVG/1.1/DTD/svg11.dtd">
<svg width="100%" height="100%" viewBox="0 0 800 800" version="1.1" xmlns="http://www.w3.org/2000/svg" xmlns:xlink="http://www.w3.org/1999/xlink" xml:space="preserve" xmlns:serif="http://www.serif.com/" style="fill-rule:evenodd;clip-rule:evenodd;stroke-linejoin:round;stroke-miterlimit:2;">
    <g transform="matrix(1.20001,0,0,1.20001,-80.0008,-80.0008)">
        <path d="M553.97,601L676.419,723.56C689.422,736.574 710.545,736.584 723.56,723.581C736.574,710.578 736.584,689.455 723.581,676.44L601.099,553.848C642.143,502.534 666.667,437.464 666.667,366.667C666.667,200.981 532.353,66.667 366.667,66.667C200.981,66.667 66.667,200.981 66.667,366.667C66.667,532.353 200.981,666.667 366.667,666.667C437.531,666.667 502.656,642.097 553.97,601ZM600,366.667C600,495.534 495.534,600 366.667,600C237.8,600 133.333,495.534 133.333,366.667C133.333,237.8 237.8,133.333 366.667,133.333C495.534,133.333 600,237.8 600,366.667ZM366.667,233.333C440.304,233.333 500,293.029 500,366.667C500,385.064 514.936,400 533.333,400C551.731,400 566.667,385.064 566.667,366.667C566.667,256.21 477.123,166.667 366.667,166.667C348.269,166.667 333.333,181.603 333.333,200C333.333,218.397 348.269,233.333 366.667,233.333Z"/>
    </g>
</svg>
