<?xml version="1.0" encoding="UTF-8" standalone="no"?>
<!DOCTYPE svg PUBLIC "-//W3C//DTD SVG 1.1//EN" "http://www.w3.org/Graphics/SVG/1.1/DTD/svg11.dtd">
<svg width="100%" height="100%" viewBox="0 0 800 800" version="1.1" xmlns="http://www.w3.org/2000/svg" xmlns:xlink="http://www.w3.org/1999/xlink" xml:space="preserve" xmlns:serif="http://www.serif.com/" style="fill-rule:evenodd;clip-rule:evenodd;stroke-linejoin:round;stroke-miterlimit:2;">
    <g transform="matrix(1.23077,0,0,1.23077,-92.3077,-92.3077)">
        <path d="M441.07,75L358.93,75C331.835,75 309.981,75 292.284,76.445C274.063,77.934 258.058,81.08 243.251,88.624C219.731,100.608 200.608,119.731 188.624,143.251C181.08,158.058 177.934,174.063 176.445,192.284C175,209.981 175,231.835 175,258.93L175,541.07C175,568.163 175,590.02 176.445,607.717C177.934,625.937 181.08,641.94 188.624,656.75C200.608,680.27 219.731,699.39 243.251,711.377C258.058,718.92 274.063,722.067 292.284,723.553C309.981,725 331.835,725 358.93,725L441.07,725C468.167,725 490.02,725 507.717,723.553C525.937,722.067 541.94,718.92 556.75,711.377C580.27,699.39 599.39,680.27 611.377,656.75C618.92,641.94 622.067,625.937 623.553,607.717C625,590.02 625,568.167 625,541.07L625,258.929C625,231.835 625,209.981 623.553,192.284C622.067,174.063 618.92,158.058 611.377,143.251C599.39,119.731 580.27,100.608 556.75,88.624C541.94,81.08 525.937,77.934 507.717,76.445C490.02,75 468.167,75 441.07,75ZM265.951,133.175C272.535,129.82 281.227,127.516 296.356,126.279C311.777,125.019 331.585,125 360,125L440,125C468.417,125 488.223,125.019 503.643,126.279C518.773,127.516 527.467,129.82 534.05,133.175C548.16,140.365 559.633,151.839 566.827,165.951C570.18,172.535 572.483,181.227 573.72,196.356C574.98,211.777 575,231.585 575,260L575,540C575,568.417 574.98,588.223 573.72,603.643C572.483,618.773 570.18,627.467 566.827,634.05C559.633,648.16 548.16,659.633 534.05,666.827C527.467,670.18 518.773,672.483 503.643,673.72C488.223,674.98 468.417,675 440,675L360,675C331.585,675 311.777,674.98 296.356,673.72C281.227,672.483 272.535,670.18 265.951,666.827C251.839,659.633 240.365,648.16 233.175,634.05C229.82,627.467 227.516,618.773 226.279,603.643C225.019,588.223 225,568.417 225,540L225,260C225,231.585 225.019,211.777 226.279,196.356C227.516,181.227 229.82,172.535 233.175,165.951C240.365,151.839 251.839,140.365 265.951,133.175ZM333.333,575C319.526,575 308.333,586.193 308.333,600C308.333,613.807 319.526,625 333.333,625L466.667,625C480.473,625 491.667,613.807 491.667,600C491.667,586.193 480.473,575 466.667,575L333.333,575Z"/>
    </g>
</svg>
