<?xml version="1.0" encoding="UTF-8" standalone="no"?>
<!DOCTYPE svg PUBLIC "-//W3C//DTD SVG 1.1//EN" "http://www.w3.org/Graphics/SVG/1.1/DTD/svg11.dtd">
<svg width="100%" height="100%" viewBox="0 0 800 800" version="1.1" xmlns="http://www.w3.org/2000/svg" xmlns:xlink="http://www.w3.org/1999/xlink" xml:space="preserve" xmlns:serif="http://www.serif.com/" style="fill-rule:evenodd;clip-rule:evenodd;stroke-linejoin:round;stroke-miterlimit:2;">
    <g transform="matrix(1.50017,0,0,1.50017,-150.061,-200.125)">
        <path d="M512.667,136C500.278,130.791 485.899,133.561 476.333,143L353,266.667L266.667,266.667C230.094,266.667 200,296.761 200,333.333L200,466.667C200,503.239 230.094,533.333 266.667,533.333L353,533.333L476.333,657C482.622,663.237 491.143,666.718 500,666.667C504.372,666.779 508.711,665.866 512.667,664C525.089,658.897 533.266,646.763 533.333,633.333L533.333,166.667C533.266,153.237 525.089,141.103 512.667,136Z" style="fill-rule:nonzero;"/>
    </g>
</svg>
