<?xml version="1.0" encoding="UTF-8" standalone="no"?>
<!DOCTYPE svg PUBLIC "-//W3C//DTD SVG 1.1//EN" "http://www.w3.org/Graphics/SVG/1.1/DTD/svg11.dtd">
<svg width="100%" height="100%" viewBox="0 0 800 800" version="1.1" xmlns="http://www.w3.org/2000/svg" xmlns:xlink="http://www.w3.org/1999/xlink" xml:space="preserve" xmlns:serif="http://www.serif.com/" style="fill-rule:evenodd;clip-rule:evenodd;stroke-linejoin:round;stroke-miterlimit:2;">
    <g transform="matrix(1.20131,0,0,1.20131,-80.0871,-80.569)">
        <path d="M612,645.333C603.259,645.297 594.873,641.823 588.667,635.667C575.828,622.751 575.828,601.582 588.667,588.667C638.721,538.668 666.876,470.749 666.876,400C666.876,329.251 638.721,261.332 588.667,211.333C583.496,205.295 580.651,197.601 580.651,189.651C580.651,171.365 595.699,156.318 613.985,156.318C621.935,156.318 629.628,159.162 635.667,164.333C764.923,293.628 764.923,506.372 635.667,635.667C629.378,641.904 620.857,645.385 612,645.333Z" style="fill-rule:nonzero;"/>
    </g>
    <g transform="matrix(1.20131,0,0,1.20131,-80.0871,-80.569)">
        <path d="M518,551.333C509.095,551.296 500.567,547.693 494.333,541.333C481.494,528.418 481.494,507.249 494.333,494.333C519.361,469.334 533.438,435.374 533.438,400C533.438,364.626 519.361,330.666 494.333,305.667C489.162,299.628 486.318,291.935 486.318,283.985C486.318,265.699 501.365,250.651 519.651,250.651C527.601,250.651 535.295,253.496 541.333,258.667C618.8,336.23 618.8,463.77 541.333,541.333C535.181,547.611 526.789,551.208 518,551.333Z" style="fill-rule:nonzero;"/>
    </g>
    <g transform="matrix(1.20131,0,0,1.20131,-80.0871,-80.569)">
        <path d="M379.333,136C366.945,130.791 352.566,133.561 343,143L219.667,266.667L133.333,266.667C96.761,266.667 66.667,296.761 66.667,333.333L66.667,466.667C66.667,503.239 96.761,533.333 133.333,533.333L219.667,533.333L343,657C349.288,663.237 357.81,666.718 366.667,666.667C371.039,666.779 375.378,665.866 379.333,664C391.756,658.897 399.933,646.763 400,633.333L400,166.667C399.933,153.237 391.756,141.103 379.333,136Z" style="fill-rule:nonzero;"/>
    </g>
</svg>
